<svg xmlns="http://www.w3.org/2000/svg" width="512" height="512" viewBox="0 0 512 512">
  <defs>
    <style>
      .cls-1, .cls-3, .cls-4 {
        fill: #fff;
      }

      .cls-1, .cls-2 {
        stroke: #fff;
        fill-rule: evenodd;
      }

      .cls-1 {
        stroke-width: 5px;
      }

      .cls-2 {
        fill: none;
        stroke-width: 11px;
      }

      .cls-3 {
        font-size: 72px;
      }

      .cls-3, .cls-4 {
        font-family: "Berlin Sans FB";
      }

      .cls-4 {
        font-size: 18px;
        text-anchor: middle;
      }
    </style>
  </defs>
  <path class="cls-1" d="M378.275,251.793c0.894-.347,1.765-0.7,2.652-1.075A97.511,97.511,0,0,0,394,244c11.047-6.792,19.973-15.363,23-20,3.85-5.9,7.187-18.158,10-18,2.756,0.154,5.223,8.447,5,16-0.216,7.312-2.984,13.758-8,21a100.6,100.6,0,0,1-12,14c-3.972,3.893-7.989,7.914-12,12l-3.585-1.393-7.75-4.65-4.208-4.872Z"/>
  <path class="cls-1" d="M289.287,265.506l11.9-11.016s-20.464-38.891-41.276-47.919c-2.44-1.148-4.17-2.886-5.994-3.648-11.439-4.784-32.634-3.369-48.344-16.115-8.671-7.035-11.948-13.678-12.892-19.338-1.672-10.032,3.888-16.784,7.521-25.783,3-7.439,4.038-30.376-3.223-55.865-4.216-14.8-10.712-24.646-16.115-29.007-13.9-11.22-35.777-13.2-39.75-6.446-1.225,2.083,3.07,5.542,8.89,7.63,2.643,0.948,6.374.975,9,2,1.273,0.5-15.439,4.005-14,5a55.579,55.579,0,0,0,11.151,5.782c2.283,0.619,1.292.957,3.432,1.124,9.006,0.7,16.389-1.644,19.128,1.025,11.175,10.886,6.295,38.087,0,53.716-7.487,18.589-19.382,23.749-25.783,40.824-6.955,18.551-3.4,40.321,8.594,64.459L183.275,243.7,202.66,254s10.03,15.145,18.779,15.145c0,0,14.75,9.087,24.231,9.087,0,0,23.02,2.33,23.02-4.847l13.327-1.211,4.847-4.241"/>
  <path class="cls-2" d="M96,286c22.227-31.522,45.271-49.463,69-49,36,0.7,49.083,43.568,85,44,37.257,0.448,52.225-45.341,90-46,23.719-.414,46.755,16.7,69,47"/>
  <path class="cls-2" d="M96,320c22.227-31.522,45.271-49.463,69-49,36,0.7,49.083,43.568,85,44,37.257,0.448,52.225-45.341,90-46,23.719-.414,46.755,16.7,69,47"/>
  <text id="MoNaSH" class="cls-3" x="121.2" y="386.8">MoNaSH</text>
  <text id="_Museum_of_Natural_and_Scientific_History" data-name=" Museum of Natural and  Scientific History" class="cls-4" x="252.2" y="418.8"><tspan x="252.2"> Museum of Natural and </tspan><tspan x="252.2" dy="21.6">Scientific History</tspan></text>
</svg>
